<svg xmlns="http://www.w3.org/2000/svg" width="22" height="22" fill="none" stroke="currentColor" viewBox="0 0 22 22">
  <g id="Group_368" data-name="Group 368" transform="translate(-916 -94)">
    <path id="Path_29" data-name="Path 29" d="M18.955,16.227A2.727,2.727,0,1,1,16.227,13.5,2.727,2.727,0,0,1,18.955,16.227Z" transform="translate(910.773 88.773)" stroke-linecap="round" stroke-linejoin="round" stroke-width="2"/>
    <path id="Path_30" data-name="Path 30" d="M18.227,14.227a1.5,1.5,0,0,0,.3,1.655l.055.055a1.819,1.819,0,1,1-2.573,2.573l-.055-.055a1.512,1.512,0,0,0-2.564,1.073v.155a1.818,1.818,0,1,1-3.636,0V19.6a1.5,1.5,0,0,0-.982-1.373,1.5,1.5,0,0,0-1.655.3l-.055.055a1.819,1.819,0,1,1-2.573-2.573l.055-.055a1.512,1.512,0,0,0-1.073-2.564H3.318a1.818,1.818,0,0,1,0-3.636H3.4a1.5,1.5,0,0,0,1.373-.982,1.5,1.5,0,0,0-.3-1.655l-.055-.055A1.819,1.819,0,1,1,6.991,4.491l.055.055a1.5,1.5,0,0,0,1.655.3h.073a1.5,1.5,0,0,0,.909-1.373V3.318a1.818,1.818,0,0,1,3.636,0V3.4a1.512,1.512,0,0,0,2.564,1.073l.055-.055a1.819,1.819,0,1,1,2.573,2.573l-.055.055a1.5,1.5,0,0,0-.3,1.655v.073a1.5,1.5,0,0,0,1.373.909h.155a1.818,1.818,0,0,1,0,3.636H19.6a1.5,1.5,0,0,0-1.373.909Z" transform="translate(915.5 93.5)" stroke-linecap="round" stroke-linejoin="round" stroke-width="2"/>
  </g>
</svg>