<svg xmlns="http://www.w3.org/2000/svg" width="19.167" height="13.333" fill="currentColor" viewBox="0 0 19.167 13.333">
  <g id="Group_369" data-name="Group 369" transform="translate(-716.642 -164.333)">
    <path id="Icon_material-tag-faces" data-name="Icon material-tag-faces" d="M7.993,1.333A6.667,6.667,0,1,0,14.667,8,6.663,6.663,0,0,0,7.993,1.333Zm.007,12A5.333,5.333,0,1,1,13.333,8,5.332,5.332,0,0,1,8,13.333Zm2.333-6a1,1,0,1,0-1-1,1,1,0,0,0,1,1Zm-4.667,0a1,1,0,1,0-1-1,1,1,0,0,0,1,1ZM8,11.667a3.664,3.664,0,0,0,3.407-2.333H4.593A3.664,3.664,0,0,0,8,11.667Z" transform="translate(721.142 163)"/>
    <path id="Path_91" data-name="Path 91" d="M-617.172,122.532A5.837,5.837,0,0,1-623,116.7a5.837,5.837,0,0,1,5.828-5.834,5.788,5.788,0,0,1,2.53.575,6.716,6.716,0,0,0-.913.878,4.654,4.654,0,0,0-1.612-.285,4.672,4.672,0,0,0-4.667,4.667,4.672,4.672,0,0,0,4.667,4.666,4.653,4.653,0,0,0,1.654-.3,6.717,6.717,0,0,0,.921.868A5.785,5.785,0,0,1-617.172,122.532Zm.005-2.624a3.189,3.189,0,0,1-2.981-2.042h3.088a6.618,6.618,0,0,0,.678,1.944A3.193,3.193,0,0,1-617.167,119.908Zm-2.041-3.792a.876.876,0,0,1-.875-.875.876.876,0,0,1,.875-.876.876.876,0,0,1,.875.876A.876.876,0,0,1-619.208,116.116Z" transform="translate(1339.641 54.301)"/>
  </g>
</svg>
