<svg xmlns="http://www.w3.org/2000/svg" xmlns:xlink="http://www.w3.org/1999/xlink" width="40" height="43.373" viewBox="0 0 40 43.373">
  <defs>
    <clipPath id="clip-path">
      <rect id="Rectangle_84" data-name="Rectangle 84" width="40" height="43.373" fill="none"/>
    </clipPath>
  </defs>
  <g id="Group_348" data-name="Group 348" clip-path="url(#clip-path)">
    <path id="Path_49" data-name="Path 49" d="M23.119,33.061a10.922,10.922,0,0,1-3.328-.506,7.788,7.788,0,0,1-4.988-4.72,11.617,11.617,0,0,1-.71-4.271,10.883,10.883,0,0,1,.776-4.3,8.113,8.113,0,0,1,2.167-3.014,8.543,8.543,0,0,1,3.049-1.674,11.426,11.426,0,0,1,3.365-.5,11.049,11.049,0,0,1,2.952.388,7.227,7.227,0,0,1,2.689,1.4A4.577,4.577,0,0,1,30.3,17.3a3.647,3.647,0,0,1,.431,1.685,3.136,3.136,0,0,1-1.126,2.441c-.057.049-.114.1-.173.14a3.052,3.052,0,0,1,1.239.816,3.931,3.931,0,0,1,.925,2.733,7.9,7.9,0,0,1-1.148,4.3,7.388,7.388,0,0,1-3.114,2.742,9.731,9.731,0,0,1-4.218.9m.356-12.719a1.457,1.457,0,0,0-.774.232,1.79,1.79,0,0,0-.618.822,3.692,3.692,0,0,0-.256.988,2.572,2.572,0,0,1,.518-.467,3.943,3.943,0,0,1,2.262-.614h.039q-.146-.125-.277-.261a6.081,6.081,0,0,0-.677-.613.315.315,0,0,0-.217-.088" transform="translate(-11.512 -11.501)" fill="#ff9100"/>
    <path id="Path_50" data-name="Path 50" d="M117.441,33.062a10.054,10.054,0,0,1-3.083-.487,8.119,8.119,0,0,1-2.868-1.635,7.928,7.928,0,0,1-2.08-3.021,11.556,11.556,0,0,1-.74-4.354,11.505,11.505,0,0,1,.741-4.35A7.93,7.93,0,0,1,111.49,16.2a8.111,8.111,0,0,1,2.868-1.635,9.955,9.955,0,0,1,6.154,0,7.813,7.813,0,0,1,4.935,4.647,11.513,11.513,0,0,1,.741,4.35,11.567,11.567,0,0,1-.74,4.354,7.969,7.969,0,0,1-2.071,3.018,8.057,8.057,0,0,1-2.865,1.638,10.015,10.015,0,0,1-3.071.487m0-12.77a.446.446,0,0,0-.366.134,2.065,2.065,0,0,0-.454.952,8.853,8.853,0,0,0-.227,2.187,8.986,8.986,0,0,0,.228,2.208,2.027,2.027,0,0,0,.448.944.454.454,0,0,0,.372.134.424.424,0,0,0,.347-.128,2.185,2.185,0,0,0,.447-.95,8.987,8.987,0,0,0,.228-2.208,8.85,8.85,0,0,0-.227-2.187,2.106,2.106,0,0,0-.454-.958.414.414,0,0,0-.34-.128" transform="translate(-88.769 -11.502)" fill="#e73f9c"/>
    <path id="Path_51" data-name="Path 51" d="M146.963,40.859a1.812,1.812,0,0,0-1.342-.547,1.847,1.847,0,0,0-1.361.547,3.433,3.433,0,0,0-.82,1.59,10.168,10.168,0,0,0-.274,2.544,10.3,10.3,0,0,0,.274,2.563,3.391,3.391,0,0,0,.82,1.59,1.858,1.858,0,0,0,1.361.54,1.822,1.822,0,0,0,1.342-.54,3.429,3.429,0,0,0,.814-1.59,10.3,10.3,0,0,0,.274-2.563,10.168,10.168,0,0,0-.274-2.544,3.472,3.472,0,0,0-.814-1.59" transform="translate(-116.949 -32.93)" fill="#313751"/>
    <path id="Path_52" data-name="Path 52" d="M23.647,138.5a3.742,3.742,0,0,1-4.066-4.079V124a3.736,3.736,0,0,1,4.066-4.066h4.236a13.284,13.284,0,0,1,3.187.378,6.208,6.208,0,0,1,2.864,1.523,4.47,4.47,0,0,1,1.3,3.361,5.058,5.058,0,0,1-.618,2.608,4.945,4.945,0,0,1-.56.77,5.173,5.173,0,0,1,1.049,1.179,5.114,5.114,0,0,1,.739,2.846,5.432,5.432,0,0,1-1.033,3.345,5.9,5.9,0,0,1-2.679,1.964,9.818,9.818,0,0,1-3.5.588Zm3.6-6.213a2.84,2.84,0,0,0,.859-.143c0-.015,0-.065,0-.071a3.336,3.336,0,0,0-.86-.122Z" transform="translate(-15.995 -97.973)" fill="#49c3f2"/>
    <path id="Path_53" data-name="Path 53" d="M117.441,138.084a10.049,10.049,0,0,1-3.083-.487,8.114,8.114,0,0,1-2.868-1.635,7.929,7.929,0,0,1-2.08-3.021,13.153,13.153,0,0,1,0-8.7,7.932,7.932,0,0,1,2.08-3.012,8.117,8.117,0,0,1,2.868-1.635,9.955,9.955,0,0,1,6.154,0,7.813,7.813,0,0,1,4.935,4.647,13.156,13.156,0,0,1,0,8.7,7.969,7.969,0,0,1-2.071,3.018,8.054,8.054,0,0,1-2.865,1.638,10.011,10.011,0,0,1-3.071.487m0-12.77a.446.446,0,0,0-.366.134,2.068,2.068,0,0,0-.454.952,8.854,8.854,0,0,0-.227,2.187,8.985,8.985,0,0,0,.228,2.208,2.027,2.027,0,0,0,.448.944.455.455,0,0,0,.372.134.423.423,0,0,0,.347-.128,2.185,2.185,0,0,0,.447-.95,8.986,8.986,0,0,0,.228-2.208,8.849,8.849,0,0,0-.227-2.187,2.108,2.108,0,0,0-.454-.958.414.414,0,0,0-.34-.128" transform="translate(-88.769 -97.291)" fill="#42b84b"/>
    <path id="Path_54" data-name="Path 54" d="M55.842,148.853a1.645,1.645,0,0,0,.808-.407,1.481,1.481,0,0,0,.019-1.825,1.49,1.49,0,0,0-.789-.369,5.954,5.954,0,0,0-1-.083H53.73v2.786h1.145a4.688,4.688,0,0,0,.967-.1" transform="translate(-43.891 -119.402)" fill="#313751"/>
    <path id="Path_55" data-name="Path 55" d="M56.687,178.121a4.557,4.557,0,0,0-1.66-.28h-1.3V181h1.3a4.139,4.139,0,0,0,1.66-.312,1.259,1.259,0,0,0,.719-1.291,1.208,1.208,0,0,0-.719-1.272" transform="translate(-43.891 -145.274)" fill="#313751"/>
    <path id="Path_56" data-name="Path 56" d="M36.313,22h0q-.182-.161-.373-.314.191-.153.373-.314a10.515,10.515,0,0,0,2.755-3.979A14.1,14.1,0,0,0,40,12.063a14.048,14.048,0,0,0-.934-5.328,10.531,10.531,0,0,0-2.753-3.968A10.619,10.619,0,0,0,32.534.609a12.592,12.592,0,0,0-7.735,0,10.679,10.679,0,0,0-3.777,2.15,8.849,8.849,0,0,0-.707.694,7.694,7.694,0,0,0-1.106-1.091A9.79,9.79,0,0,0,15.581.48,14.134,14.134,0,0,0,7.814.613,11.112,11.112,0,0,0,3.848,2.79,10.676,10.676,0,0,0,.985,6.749,13.42,13.42,0,0,0,0,12.063a14.174,14.174,0,0,0,.891,5.223A10.7,10.7,0,0,0,3.2,20.89,6.5,6.5,0,0,0,1,26.03V36.447a6.3,6.3,0,0,0,6.647,6.66h4.986a12.374,12.374,0,0,0,4.413-.757,8.529,8.529,0,0,0,3.389-2.293q.281.293.582.556a10.68,10.68,0,0,0,3.777,2.15,12.534,12.534,0,0,0,7.735,0,10.381,10.381,0,0,0,6.534-6.137A14.1,14.1,0,0,0,40,31.3a14.048,14.048,0,0,0-.934-5.328A10.526,10.526,0,0,0,36.313,22m-5-2.267a8.544,8.544,0,0,1-5.291,0,6.679,6.679,0,0,1-2.372-1.354,6.508,6.508,0,0,1-1.7-2.493,10.137,10.137,0,0,1-.636-3.822,10.088,10.088,0,0,1,.636-3.816,6.52,6.52,0,0,1,1.7-2.487A6.682,6.682,0,0,1,26.02,4.406a8.548,8.548,0,0,1,5.291,0,6.406,6.406,0,0,1,4.064,3.841,10.088,10.088,0,0,1,.636,3.816,10.137,10.137,0,0,1-.636,3.822,6.548,6.548,0,0,1-1.7,2.493,6.622,6.622,0,0,1-2.366,1.354M26.02,23.638a8.548,8.548,0,0,1,5.291,0,6.405,6.405,0,0,1,4.064,3.841,10.088,10.088,0,0,1,.636,3.816,10.136,10.136,0,0,1-.636,3.822,6.55,6.55,0,0,1-1.7,2.493,6.625,6.625,0,0,1-2.366,1.355,8.548,8.548,0,0,1-5.291,0,6.682,6.682,0,0,1-2.372-1.355,6.51,6.51,0,0,1-1.7-2.493,10.136,10.136,0,0,1-.636-3.822,10.088,10.088,0,0,1,.636-3.816,6.518,6.518,0,0,1,1.7-2.487,6.679,6.679,0,0,1,2.372-1.354M12.638,39.118H7.652a2.355,2.355,0,0,1-2.658-2.671V26.03a2.35,2.35,0,0,1,2.658-2.658h4.236a11.824,11.824,0,0,1,2.849.337,4.8,4.8,0,0,1,2.226,1.17,3.106,3.106,0,0,1,.865,2.347,3.679,3.679,0,0,1-.42,1.889,2.969,2.969,0,0,1-1,1.056,3.691,3.691,0,0,1-1.094.464,3.959,3.959,0,0,1-.706.115,5.113,5.113,0,0,1,.8.127,4.722,4.722,0,0,1,1.31.515,3.466,3.466,0,0,1,1.208,1.164,3.733,3.733,0,0,1,.509,2.073,4.043,4.043,0,0,1-.75,2.5,4.5,4.5,0,0,1-2.054,1.494,8.389,8.389,0,0,1-3,.5m5.113-21.954a5.974,5.974,0,0,1-2.531,2.226,8.3,8.3,0,0,1-3.612.763,9.475,9.475,0,0,1-2.9-.439,6.382,6.382,0,0,1-4.108-3.9,10.2,10.2,0,0,1-.611-3.752A9.457,9.457,0,0,1,4.65,8.324a6.7,6.7,0,0,1,1.787-2.5,7.117,7.117,0,0,1,2.55-1.4,9.974,9.974,0,0,1,2.951-.439,9.6,9.6,0,0,1,2.576.337,5.8,5.8,0,0,1,2.169,1.125,3.2,3.2,0,0,1,.859,1,2.245,2.245,0,0,1,.273,1.037,1.736,1.736,0,0,1-.636,1.373,2.129,2.129,0,0,1-1.425.547,2.351,2.351,0,0,1-1.043-.242,2.941,2.941,0,0,1-.84-.6,7.321,7.321,0,0,0-.814-.738,1.719,1.719,0,0,0-1.094-.394,2.848,2.848,0,0,0-1.507.439,3.115,3.115,0,0,0-1.17,1.45,6.843,6.843,0,0,0-.452,2.741,7.539,7.539,0,0,0,.426,2.849,2.762,2.762,0,0,0,1.126,1.4,3.056,3.056,0,0,0,1.526.394,1.844,1.844,0,0,0,1.126-.324,2.011,2.011,0,0,0,.661-.846,2.957,2.957,0,0,0,.235-1.106h-.789a2.63,2.63,0,0,1-1.495-.381,1.379,1.379,0,0,1-.566-1.234,1.384,1.384,0,0,1,.54-1.234,2.573,2.573,0,0,1,1.469-.369h3.167a2.407,2.407,0,0,1,1.857.617,2.574,2.574,0,0,1,.56,1.787,6.488,6.488,0,0,1-.928,3.549" transform="translate(0 0)" fill="#282d43"/>
    <path id="Path_57" data-name="Path 57" d="M146.963,145.881a1.813,1.813,0,0,0-1.342-.547,1.848,1.848,0,0,0-1.361.547,3.434,3.434,0,0,0-.82,1.59,10.167,10.167,0,0,0-.274,2.544,10.306,10.306,0,0,0,.274,2.563,3.389,3.389,0,0,0,.82,1.59,1.857,1.857,0,0,0,1.361.541,1.822,1.822,0,0,0,1.342-.541,3.427,3.427,0,0,0,.814-1.59,10.306,10.306,0,0,0,.274-2.563,10.167,10.167,0,0,0-.274-2.544,3.473,3.473,0,0,0-.814-1.59" transform="translate(-116.949 -118.72)" fill="#313751"/>
  </g>
</svg>
